<?xml version="1.0" encoding="UTF-8"?>
<svg id="Layer_1" data-name="Layer 1" xmlns="http://www.w3.org/2000/svg" xmlns:xlink="http://www.w3.org/1999/xlink" viewBox="0 0 1467.35 1007.59">
  <defs>
    <style>
      .cls-1 {
        fill: url(#linear-gradient);
      }
    </style>
    <linearGradient id="linear-gradient" x1="0" y1="503.8" x2="1467.35" y2="503.8" gradientUnits="userSpaceOnUse">
      <stop offset="0" stop-color="#f378a2"/>
      <stop offset=".06" stop-color="#f26d9a"/>
      <stop offset=".21" stop-color="#f05c8e"/>
      <stop offset=".36" stop-color="#ef5186"/>
      <stop offset=".54" stop-color="#ef4e84"/>
      <stop offset=".64" stop-color="#e94b83"/>
      <stop offset=".76" stop-color="#da4680"/>
      <stop offset=".9" stop-color="#c03c7d"/>
      <stop offset="1" stop-color="#ab347a"/>
    </linearGradient>
  </defs>
  <path class="cls-1" d="M1463.35,567.15c-1.77,13.94-13.63,24.39-27.69,24.35l-32.24-.09c-12.59-.04-23.72,8.37-26.92,20.55-5.25,19.95-12.01,39.76-20.34,59.3-7.44,17.45-15.91,34.15-25.31,50.06-6.43,10.88-4.66,24.73,4.25,33.69l22.74,22.87c9.91,9.96,10.81,25.75,2.15,36.81-25.85,33.01-55.45,62.25-87.89,87.34-11.1,8.59-26.86,7.56-36.76-2.39l-22.73-22.86c-8.89-8.94-22.72-10.84-33.61-4.48-34.27,20-71.18,35.17-109.6,45.03-12.21,3.14-20.71,14.2-20.75,26.81l-.09,32.22c-.04,14.03-10.53,25.84-24.46,27.54-40.73,4.97-82.33,4.99-123.9-.3-13.94-1.77-24.39-13.63-24.35-27.69l.09-32.24c.04-12.59-8.37-23.72-20.55-26.92-19.95-5.25-39.76-12.01-59.3-20.34-17.45-7.44-34.15-15.91-50.05-25.31-10.88-6.43-24.73-4.66-33.69,4.25l-22.86,22.73c-9.98,9.92-25.77,10.8-36.84,2.12-33.02-25.86-62.26-55.47-87.35-87.92-6.66-8.61-23.91-20.28-64.38-19.92-.18,0-.33-.01-.5-.01H125.21c-26.45,0-47.82-21.78-47.13-48.39.66-25.73,22.46-45.9,48.19-45.9h296.68s45.06,0,45.06,0h86.36c.71,0,1.41.02,2.11.05,0,0,43.52,0,74.9-.02,19.08,0,36.93,9.06,48.53,24.21,37.26,48.68,87.38,88.42,147.88,113.2,181.91,74.51,390.66-11.54,466.65-193.97,76.07-182.64-12.06-394.47-195.14-469.45-145.57-59.62-308.31-16.42-406.47,96.71-19.73,22.73-48.47,35.61-78.57,35.57-46.27-.06-107.07-.09-107.07-.09-.05-.03-.1-.06-.15-.1h-47.33c-26.45,0-47.82-21.78-47.13-48.39s22.46-45.9,48.19-45.9h34.09c.66-.05,1.35-.08,2.07-.08,52.04,0,63.98-8.96,70.13-16.82,25.86-33.03,55.45-62.27,87.9-87.37,11.11-8.6,26.89-7.6,36.79,2.36l22.73,22.86c8.89,8.94,22.72,10.84,33.61,4.48,34.27-20,71.18-35.17,109.6-45.03,12.21-3.14,20.71-14.2,20.75-26.81l.09-32.23c.04-14.03,10.53-25.84,24.46-27.54,40.73-4.97,82.33-5,123.9.3,13.94,1.77,24.39,13.63,24.35,27.69l-.09,32.24c-.04,12.59,8.37,23.72,20.55,26.92,19.95,5.25,39.76,12.01,59.3,20.34,17.45,7.44,34.15,15.91,50.06,25.31,10.88,6.43,24.73,4.66,33.69-4.25l22.87-22.74c9.96-9.91,25.75-10.81,36.81-2.15,33.01,25.85,62.25,55.45,87.34,87.89,8.59,11.1,7.56,26.86-2.39,36.76l-22.86,22.73c-8.94,8.89-10.84,22.72-4.48,33.61,20,34.27,35.17,71.18,45.03,109.6,3.14,12.21,14.2,20.71,26.81,20.75l32.23.09c14.03.04,25.84,10.53,27.54,24.46,4.97,40.73,4.99,82.33-.3,123.9ZM125.21,304.18h172.72c26.04,0,47.15-21.11,47.15-47.15s-21.11-47.15-47.15-47.15H125.21c-26.04,0-47.15,21.11-47.15,47.15s21.11,47.15,47.15,47.15ZM424.83,535.49c-.63,0-1.26-.02-1.88-.05h-73.34c-25.74,0-47.53,20.18-48.19,45.9s20.68,48.39,47.13,48.39h74.42c.62-.03,1.23-.05,1.86-.05h172.37c14.98,0,25.96-14.29,21.87-28.7-2.9-10.19-5.35-20.52-7.35-30.96-3.83-20.01-21.21-34.53-41.58-34.53h-46.76s-98.55,0-98.55,0ZM47.15,467.1h474.12c26.04,0,47.91-21.33,51.32-47.15,5.06-38.25,0-47.15-47.15-47.15H47.15c-26.04,0-47.15,21.11-47.15,47.15s21.11,47.15,47.15,47.15ZM180.65,582.58c0-26.04-21.11-47.15-47.15-47.15H47.15c-26.04,0-47.15,21.11-47.15,47.15s21.11,47.15,47.15,47.15h86.36c26.04,0,47.15-21.11,47.15-47.15ZM916.85,662.51l210.78-121.7c28.49-16.45,28.49-57.58,0-74.03l-210.78-121.7c-28.49-16.45-64.11,4.11-64.11,37.01v243.39c0,32.9,35.62,53.46,64.11,37.01Z"/>
</svg>